# xmcd
#
# Track frame offsets:
# 150
# 22141
# 43025
# 64665
# 90404
# 113033
# 135584
# 156953
# 182089
# 203013
# 224958
# 248107
#
# Disc length: 3629 seconds
#
#
# Revision: 1
# Processed by: cddbd v1.5.2PL0 Copyright (c) Steve Scherf et al.
# Submitted via: FreeRIP 2.96 
#
DISCID=ac0e2b0c
DTITLE=Joanne K. Rowling - Harry Potter 6 (und der Halbblutprinz)
DYEAR=2006
DGENRE=Hörbuch
TTITLE0=222 - Sectumsempra 6
TTITLE1=223 - Sectumsempra 7
TTITLE2=224 - Sectumsempra 8
TTITLE3=225 - Sectumsempra 9
TTITLE4=226 - Die belauschte Seherin 1
TTITLE5=227 - Die belauschte Seherin 2
TTITLE6=228 - Die belauschte Seherin 3
TTITLE7=229 - Die belauschte Seherin 4
TTITLE8=230 - Die belauschte Seherin 5
TTITLE9=231 - Die belauschte Seherin 6
TTITLE10=232 - Die belauschte Seherin 7
TTITLE11=233 - Die belauschte Seherin 8
EXTD=gelesen von Rufus Beck
EXTT0=
EXTT1=
EXTT2=
EXTT3=
EXTT4=
EXTT5=
EXTT6=
EXTT7=
EXTT8=
EXTT9=
EXTT10=
EXTT11=
PLAYORDER=
